HIERARCHY
ROOT Hips
{
	OFFSET 0.00000 0.00000 0.00000
	CHANNELS 6 Xposition Yposition Zposition Zrotation Yrotation Xrotation 
	JOINT RightUpLegDummy
	{
		OFFSET 0 0 0
		CHANNELS 3 Zrotation Yrotation Xrotation
		JOINT RightUpLeg
		{
			OFFSET -3.52197 -3.41223 0.04002
			CHANNELS 3 Zrotation Yrotation Xrotation
			JOINT RightLeg
			{
				OFFSET 0.00006 -17.42390 1.60435
				CHANNELS 3 Zrotation Yrotation Xrotation
				JOINT RightFoot
				{
					OFFSET 0.06153 -16.50078 -1.63901
					CHANNELS 3 Zrotation Yrotation Xrotation
					JOINT RightToes
					{
						OFFSET 0.00298 -1.73825 3.34613
						CHANNELS 3 Zrotation Yrotation Xrotation
						End Site
						{
							OFFSET 0.00480 -0.05416 3.85043
						}
					}
				}
			}
		}
	}
	JOINT SpineDummy
	{
		OFFSET 0 0 0
		CHANNELS 3 Zrotation Yrotation Xrotation
		JOINT Spine
		{
			OFFSET 0.00000 4.68130 0.00000
			CHANNELS 3 Zrotation Yrotation Xrotation
			JOINT Spine1
			{
				OFFSET -0.00000 10.10138 0.05002
				CHANNELS 3 Zrotation Yrotation Xrotation
				JOINT HEadDummy
				{
					OFFSET 0 0 0
					CHANNELS 3 Zrotation Yrotation Xrotation
					JOINT Head
					{
						OFFSET -0.00000 3.43865 0.00438
						CHANNELS 3 Zrotation Yrotation Xrotation
						End Site
						{
							OFFSET -0.11417 5.02924 0.98962
						}
					}
				}
				JOINT LeftShoulder1Dummy
				{
					OFFSET 0 0 0
					CHANNELS 3 Zrotation Yrotation Xrotation
					JOINT LeftShoulder1
					{
						OFFSET 3.53937 -0.14262 -0.08662
						CHANNELS 3 Zrotation Yrotation Xrotation
						JOINT LeftArm
						{
							OFFSET 4.04833 -0.00133 0.12681
							CHANNELS 3 Zrotation Yrotation Xrotation
							JOINT LeftForeArm
							{
								OFFSET 10.33880 -0.01036 -0.55515
								CHANNELS 3 Zrotation Yrotation Xrotation
								JOINT LeftHand
								{
									OFFSET 8.69677 0.07543 0.40060
									CHANNELS 3 Zrotation Yrotation Xrotation
									End Site
									{
										OFFSET 5.28377 -0.21905 0.59205
									}
								}
							}
						}
					}
				}
				JOINT RightShoulderDummy
				{
					OFFSET 0 0 0
					CHANNELS 3 Zrotation Yrotation Xrotation
					JOINT RightShoulder
					{
						OFFSET -3.53937 -0.14262 -0.08660
						CHANNELS 3 Zrotation Yrotation Xrotation
						JOINT RightArm
						{
							OFFSET -4.04833 -0.00133 0.12683
							CHANNELS 3 Zrotation Yrotation Xrotation
							JOINT RightForeArm
							{
								OFFSET -10.37987 -0.01039 -0.55511
								CHANNELS 3 Zrotation Yrotation Xrotation
								JOINT RightHand
								{
									OFFSET -8.67398 0.07538 0.40058
									CHANNELS 3 Zrotation Yrotation Xrotation
									End Site
									{
										OFFSET -5.24810 -0.21916 0.59204
									}
								}
							}
						}
					}
				}
			}
		}
	}
	JOINT LeftUpLegDummy
	{
		OFFSET 0 0 0
		CHANNELS 3 Zrotation Yrotation Xrotation
		JOINT LeftUpLeg
		{
			OFFSET 3.52197 -3.41223 0.04002
			CHANNELS 3 Zrotation Yrotation Xrotation
			JOINT LeftLeg
			{
				OFFSET -0.00012 -17.42399 1.60337
				CHANNELS 3 Zrotation Yrotation Xrotation
				JOINT LeftFoot
				{
					OFFSET -0.09972 -16.50070 -1.63802
					CHANNELS 3 Zrotation Yrotation Xrotation
					JOINT LeftToes
					{
						OFFSET -0.01575 -1.73823 3.34611
						CHANNELS 3 Zrotation Yrotation Xrotation
						End Site
						{
							OFFSET 0.03150 -0.01868 3.85031
						}
					}
				}
			}
		}
	}
}
MOTION
Frames: 9
Frame Time: 0.033333
-23.7875 38.9294 -10.9797 179.6780 48.4386 173.9760 0.0000 0.0000 0.0000 6.3382 -0.6339 -9.3161 -6.8966 -23.3382 16.5355 -6.4981 0.4017 -4.0205 0.0000 -0.0000 0.0000 0.0000 0.0000 0.0000 -0.4352 -1.3706 7.1743 4.9989 -2.2778 -0.7630 -0.0000 0.0000 -0.0000 3.3368 -5.5614 -4.0806 -0.0000 0.0000 -0.0000 -34.5436 -3.1629 2.7051 -44.4068 -14.9485 -18.3252 -9.6302 4.9278 54.8820 14.1950 -3.4997 -1.0603 -0.0000 0.0000 -0.0000 34.2339 5.0695 3.4504 38.6449 3.6793 -18.2663 10.4808 -1.7776 20.8354 -11.3248 1.0848 -0.6221 0.0000 0.0000 0.0000 6.8864 21.2150 9.5955 -4.9891 -6.2964 34.8984 -13.9912 0.8718 -4.4542 0.0000 0.0000 -0.0000
-23.3445 38.7274 -11.2489 -179.7920 49.8042 174.0230 0.0000 0.0000 0.0000 7.0104 -0.6994 -9.3508 -7.3442 -21.9737 19.2514 -6.1586 0.2559 -6.1716 0.0000 -0.0000 0.0000 0.0000 0.0000 0.0000 0.5447 -1.2449 8.0781 4.0784 -1.9767 -0.9997 -0.0000 0.0000 -0.0000 3.5180 -5.3887 -4.8657 -0.0000 0.0000 -0.0000 -34.4625 -3.0981 2.6734 -43.5677 -16.0662 -18.4561 -9.4104 4.8904 56.0824 15.2550 -3.5696 -1.1505 -0.0000 0.0000 -0.0000 34.4746 5.1092 3.4874 38.6025 4.7406 -17.5884 10.6645 -0.8996 20.6537 -11.2957 1.2625 -0.6364 0.0000 0.0000 0.0000 7.7393 20.6842 6.2662 -5.5823 -5.3756 42.5536 -14.4606 1.4535 0.1725 0.0000 0.0000 -0.0000
-22.9311 38.5498 -11.5009 -179.5190 51.0377 173.8090 0.0000 0.0000 0.0000 7.4324 -0.8240 -9.1764 -7.6016 -20.5596 21.5462 -5.6730 0.1306 -8.1044 0.0000 -0.0000 0.0000 0.0000 0.0000 0.0000 0.9480 -1.1580 9.0610 3.6769 -1.8084 -1.1610 -0.0000 0.0000 -0.0000 3.6109 -5.1629 -5.4441 -0.0000 0.0000 -0.0000 -34.2507 -3.0575 2.6428 -43.1855 -17.3010 -18.9463 -9.0753 4.9234 55.2004 15.9212 -3.0972 -1.1416 -0.0000 0.0000 -0.0000 34.5725 5.1326 3.5054 38.5409 6.0947 -16.9029 10.8070 -0.0698 20.7064 -11.4190 1.4256 -0.6584 0.0000 0.0000 0.0000 7.7334 18.9133 2.7595 -5.6311 -4.3106 49.1395 -12.5434 1.6298 3.6150 0.0000 0.0000 -0.0000
-22.5017 38.4576 -11.7853 -179.6550 52.3734 173.2640 0.0000 0.0000 0.0000 7.5478 -0.9880 -8.5075 -7.4714 -19.0238 22.9378 -5.2240 0.0372 -9.7360 0.0000 -0.0000 0.0000 0.0000 0.0000 0.0000 0.9074 -0.9934 9.7828 3.5981 -1.6249 -1.1544 -0.0000 0.0000 -0.0000 3.5623 -4.9508 -5.5205 -0.0000 0.0000 -0.0000 -34.0547 -3.0612 2.6313 -43.0710 -18.4447 -19.4133 -8.8203 4.9858 53.3778 16.2326 -2.7855 -1.1233 -0.0000 0.0000 -0.0000 34.5627 5.1441 3.5092 38.4531 7.4178 -16.2124 10.9430 0.8211 20.5875 -11.6596 1.5026 -0.6797 0.0000 0.0000 0.0000 7.1078 16.5774 -0.3121 -4.8015 -3.1704 53.5687 -9.8673 1.2880 3.6991 0.0000 0.0000 -0.0000
-22.0382 38.4575 -12.1169 179.8150 54.0292 172.4410 0.0000 0.0000 0.0000 7.4332 -1.1476 -7.3088 -7.0028 -17.4214 23.3488 -4.8479 -0.0237 -10.9456 0.0000 -0.0000 0.0000 0.0000 0.0000 0.0000 0.7586 -0.7147 10.1761 3.4265 -1.3142 -1.0839 -0.0000 0.0000 -0.0000 3.4844 -4.7882 -4.9726 -0.0000 0.0000 -0.0000 -33.8049 -3.0821 2.6230 -43.1209 -19.2692 -19.2366 -8.9386 5.0322 51.8699 16.2819 -2.8690 -1.1379 -0.0000 0.0000 -0.0000 34.5768 5.1554 3.5151 38.3671 8.5487 -15.6220 11.0505 1.7433 20.2066 -11.7918 1.5504 -0.6921 0.0000 0.0000 0.0000 6.2982 14.3313 -2.6987 -2.7466 -1.8097 55.3789 -7.5493 0.8139 1.0349 0.0000 0.0000 -0.0000
-21.5540 38.5134 -12.4741 179.0170 55.9578 171.4950 0.0000 0.0000 0.0000 7.1462 -1.3216 -5.8682 -6.2867 -15.7250 23.1087 -4.6031 -0.0624 -11.8056 0.0000 -0.0000 0.0000 0.0000 0.0000 0.0000 0.5882 -0.3988 10.3869 3.1648 -0.9478 -1.1500 -0.0000 0.0000 -0.0000 3.4098 -4.6679 -3.9927 -0.0000 0.0000 -0.0000 -33.5580 -3.0708 2.6022 -43.2532 -19.5819 -18.2680 -9.5176 5.0596 50.7713 16.1237 -3.1173 -1.1593 -0.0000 0.0000 -0.0000 34.5634 5.1532 3.5130 38.3954 9.4983 -15.0952 11.1335 2.6392 19.8284 -11.7305 1.6456 -0.6973 0.0000 0.0000 0.0000 5.5328 12.1555 -4.5490 -0.0506 -0.3190 54.7153 -5.5182 0.4573 -2.1357 0.0000 0.0000 -0.0000
-21.0602 38.6066 -12.8401 178.1460 57.9905 170.6430 0.0000 0.0000 0.0000 6.6999 -1.5556 -4.4075 -5.2109 -13.7603 22.4322 -4.6637 -0.0904 -12.4318 0.0000 -0.0000 0.0000 0.0000 0.0000 0.0000 0.4114 -0.1345 10.4060 2.9637 -0.6444 -1.2725 -0.0000 0.0000 -0.0000 3.2599 -4.4989 -3.0076 -0.0000 0.0000 -0.0000 -33.4530 -3.0090 2.5708 -43.3780 -19.4451 -16.9098 -10.3478 5.0855 49.5910 15.9123 -3.4073 -1.1814 -0.0000 0.0000 -0.0000 34.4901 5.1350 3.4992 38.5413 10.3230 -14.4937 11.2328 3.5259 19.6098 -11.7232 1.7232 -0.7042 0.0000 0.0000 0.0000 4.8186 9.6335 -6.0679 2.8004 1.4773 51.9912 -3.2988 0.2219 -4.5810 0.0000 0.0000 -0.0000
-20.5589 38.7160 -13.2056 177.3600 60.0018 170.0350 0.0000 0.0000 0.0000 6.1835 -1.8133 -3.0405 -3.8875 -11.5625 21.5363 -5.0120 -0.1150 -12.8828 0.0000 -0.0000 0.0000 0.0000 0.0000 0.0000 0.3353 0.0594 10.1177 2.7622 -0.4162 -1.2007 -0.0000 0.0000 -0.0000 3.0517 -4.2430 -2.3869 -0.0000 0.0000 -0.0000 -33.4742 -2.9468 2.5477 -43.4820 -19.1619 -15.6199 -11.1520 5.1185 48.1296 15.8697 -3.7568 -1.2236 -0.0000 0.0000 -0.0000 34.4478 5.1204 3.4896 38.7080 10.9792 -13.7177 11.3462 4.4887 19.3233 -11.9350 1.7259 -0.7175 0.0000 0.0000 0.0000 4.2217 6.6501 -7.3847 5.9946 4.1653 47.7360 -1.4385 0.0998 -6.2437 0.0000 0.0000 -0.0000
-20.0540 38.8096 -13.5568 176.7280 61.8679 169.7000 0.0000 0.0000 0.0000 5.7831 -1.9760 -1.8432 -2.7943 -9.6050 20.6609 -5.3888 -0.1388 -13.2508 0.0000 -0.0000 0.0000 0.0000 0.0000 0.0000 0.3448 0.1820 9.6161 2.5504 -0.2613 -0.9638 -0.0000 0.0000 -0.0000 2.9301 -4.0093 -2.2206 -0.0000 0.0000 -0.0000 -33.5139 -2.9320 2.5444 -43.6486 -18.9646 -14.6541 -11.7476 5.1527 46.6553 16.1109 -4.0742 -1.2849 -0.0000 0.0000 -0.0000 34.4468 5.1162 3.4878 38.8784 11.3791 -12.6484 11.4147 5.5253 18.6850 -12.1003 1.7800 -0.7329 0.0000 0.0000 0.0000 3.9473 3.5818 -8.6251 8.8672 7.6599 42.5621 -0.6291 0.0653 -7.0418 0.0000 0.0000 -0.0000
